<svg width="283" height="189" viewBox="0 0 283 189" fill="none" xmlns="http://www.w3.org/2000/svg">
<path d="M131.407 7.81895C143.992 6.92224 156.962 8.5412 168.22 12.8712C174.111 15.0066 179.446 17.9026 184.256 21.1963C195.11 28.9109 202.387 39.3713 204.362 50.4424C206.891 63.8861 201.518 77.9927 189.906 88.4741C177.876 99.4684 159.204 106.346 140.094 106.611C127.035 106.928 113.877 104.283 102.811 99.1195C89.2109 92.8774 78.8781 82.8287 74.3275 71.4505C68.0987 56.6147 72.1462 39.6644 84.8906 27.3338C95.7829 16.3604 113.167 9.17274 131.407 7.81895ZM119.156 30.1669C115.174 30.9171 111.987 33.4712 111.174 36.4509C110.248 38.8898 111.602 41.4125 113.374 43.4536C116.232 46.4473 120.026 49.0746 124.638 50.4947C126.758 50.9274 129.55 51.1402 131.073 49.6887C133.635 47.4033 133.786 44.2282 133.739 41.395C133.706 38.042 132.737 34.3539 129.301 31.9778C126.64 30.0797 122.668 29.6157 119.156 30.1669ZM150.512 30.296C148.495 30.8473 146.615 31.7894 145.28 33.049C144.133 34.4516 143.056 35.9485 142.732 37.5953C142.055 40.5751 141.923 43.6734 142.83 46.6322C143.427 48.2233 144.49 49.9434 146.629 50.6622C150.719 51.367 154.432 49.5003 157.441 47.6825C161.127 45.2156 164.756 42.1347 165.085 38.2827C164.991 34.7168 161.761 31.102 156.976 30.2018C154.86 29.8669 152.599 29.8285 150.512 30.296ZM97.9876 49.3119C95.2939 50.254 93.0328 52.0718 92.5674 54.3084C91.8575 56.7717 93.0187 59.5211 95.6794 61.1122C98.7821 62.9614 102.82 63.7116 106.717 63.9733C109.373 64.0675 112.504 64.1129 114.488 62.5742C115.823 61.6356 115.706 60.1317 115.362 58.9105C114.394 55.6587 111.508 52.9511 108.377 50.6657C105.646 48.7432 101.443 48.321 97.9876 49.3119ZM170.016 49.434C166.035 51.1437 163.275 54.1199 161.334 57.1555C160.346 58.9734 159.524 61.5728 162.02 62.9475C164.779 64.385 168.423 64.0989 171.586 63.7709C175.643 63.1045 180.34 62.1031 182.418 59.1618C185.144 55.7319 182.939 50.5854 177.749 49.2979C175.281 48.6106 172.414 48.5478 170.016 49.434ZM136.075 54.9085C131.224 56.1297 126.861 58.3069 123.157 60.9168C119.824 63.1394 116.575 65.5574 114.54 68.565C112.551 71.639 111.86 75.3968 113.905 78.5614C116.331 82.8566 123.18 85.4455 129.282 84.3639C132.272 83.8824 134.481 82.2146 136.837 80.8887C137.382 80.5328 138.247 80.3793 138.872 80.7282C141.035 81.7994 142.774 83.366 145.284 84.0289C151.847 85.9445 159.928 82.9752 162.283 78.1113C164.248 74.8699 163.167 71.1051 161.07 68.0591C158.019 64.0884 153.403 60.9098 148.467 58.2406C144.772 56.503 140.738 54.1269 136.075 54.9085Z" fill="#EB7859"/>
<path d="M119.156 30.1669C122.668 29.6157 126.64 30.0797 129.301 31.9778C132.737 34.3539 133.706 38.042 133.739 41.395C133.786 44.2282 133.635 47.4033 131.073 49.6887C129.55 51.1402 126.758 50.9274 124.637 50.4947C120.026 49.0746 116.232 46.4473 113.374 43.4536C111.602 41.4125 110.248 38.8898 111.174 36.4509C111.987 33.4712 115.174 30.9171 119.156 30.1669Z" fill="white"/>
<path d="M150.512 30.2962C152.599 29.8286 154.86 29.867 156.976 30.202C161.761 31.1022 164.991 34.7169 165.085 38.2828C164.756 42.1348 161.127 45.2158 157.441 47.6826C154.432 49.5004 150.719 51.3671 146.629 50.6623C144.49 49.9436 143.427 48.2234 142.83 46.6324C141.923 43.6736 142.055 40.5752 142.732 37.5955C143.056 35.9486 144.133 34.4517 145.28 33.0491C146.615 31.7895 148.495 30.8474 150.512 30.2962Z" fill="white"/>
<path d="M97.9876 49.3119C101.443 48.321 105.646 48.7432 108.377 50.6657C111.508 52.9511 114.394 55.6586 115.363 58.9105C115.706 60.1317 115.823 61.6356 114.488 62.5741C112.504 64.1129 109.373 64.0675 106.717 63.9733C102.82 63.7116 98.7821 62.9614 95.6794 61.1122C93.0187 59.5211 91.8575 56.7717 92.5674 54.3083C93.0328 52.0718 95.294 50.254 97.9876 49.3119Z" fill="white"/>
<path d="M170.016 49.4341C172.414 48.5479 175.281 48.6107 177.749 49.298C182.939 50.5855 185.144 55.732 182.417 59.1618C180.34 62.1032 175.643 63.1046 171.586 63.771C168.423 64.099 164.779 64.3851 162.02 62.9476C159.524 61.5728 160.346 58.9734 161.333 57.1556C163.275 54.12 166.034 51.1438 170.016 49.4341Z" fill="white"/>
<path d="M136.075 54.9086C140.738 54.127 144.772 56.5031 148.467 58.2407C153.403 60.9099 158.019 64.0886 161.07 68.0592C163.167 71.1052 164.248 74.87 162.283 78.1114C159.928 82.9753 151.847 85.9446 145.284 84.029C142.774 83.3661 141.035 81.7995 138.872 80.7283C138.247 80.3794 137.382 80.5329 136.837 80.8888C134.481 82.2147 132.272 83.8825 129.282 84.364C123.18 85.4456 116.331 82.8567 113.905 78.5615C111.86 75.3969 112.551 71.6391 114.54 68.5651C116.575 65.5575 119.824 63.1395 123.157 60.9169C126.861 58.307 131.224 56.1298 136.075 54.9086Z" fill="white"/>
<path d="M117.61 124.555C119.871 123.969 122.405 125.634 121.831 127.375C121.441 129.056 118.536 129.887 116.669 128.941C114.427 127.933 114.963 124.967 117.61 124.555Z" fill="#EB7859"/>
<path d="M203.407 126.652C205.072 126.241 207.06 125.86 208.654 126.632C209.533 127.061 209.486 127.933 209.5 128.627C209.462 133.68 209.533 138.732 209.462 143.788C207.582 144.018 205.523 144.206 203.84 143.379C203.652 142.654 203.421 141.924 203.431 141.185C203.426 136.338 203.478 131.495 203.407 126.652Z" fill="#EB7859"/>
<path d="M213.712 126.464C215.564 126.153 217.6 126.003 219.311 126.743C220.308 129.534 219.518 132.476 219.828 135.326C221.972 133.742 223.88 131.98 226.099 130.459C228.083 130.166 230.786 131.52 230.043 133.195C229.136 134.897 226.616 135.64 225.182 137.05C225.164 137.5 225.794 137.741 226.127 138.058C227.697 139.168 229.211 140.323 230.758 141.453C230.48 142.472 229.954 143.68 228.37 143.896C226.123 144.395 224.261 143.041 223.067 141.806C221.995 140.839 221.013 139.814 219.819 138.924C219.767 140.532 219.8 142.141 219.758 143.746C217.708 143.994 214.784 144.444 213.703 142.696C213.731 137.284 213.712 131.872 213.712 126.464Z" fill="#EB7859"/>
<path d="M30.0723 127.954C33.6685 126.663 37.9699 126.666 41.8201 127.287C45.5479 127.821 48.7023 130.054 49.5391 132.807C50.484 135.804 50.0515 139.304 47.2215 141.694C44.4479 143.917 40.076 144.489 36.1695 144.332C34.2609 144.175 32.2112 144.084 30.5471 143.306C29.1979 142.448 29.5881 140.972 29.5552 139.803C29.5363 137.245 29.5222 134.688 29.5599 132.13C29.7009 130.756 29.0757 129.186 30.0723 127.954ZM35.8122 130.735C35.8075 134.039 35.7887 137.34 35.831 140.644C38.4823 141.045 42.0222 140.595 42.9859 138.428C43.9167 136.234 44.0248 133.345 41.5944 131.638C40.0243 130.55 37.7866 130.714 35.8122 130.735Z" fill="#EB7859"/>
<path d="M146.741 128.508C148.473 127.871 150.666 127.324 152.64 127.918C154.73 128.359 154.471 129.923 154.889 130.984C155.796 133.889 156.022 136.886 157.38 139.727C158.248 136.962 159.474 134.24 160.475 131.492C162.779 131.18 165.445 130.938 167.529 131.78C169.261 134.32 169.855 137.091 171.362 139.684C172.538 135.881 173.055 132.012 173.72 128.17C175.634 127.666 177.959 127.394 179.818 128.143C181.088 128.571 180.785 129.585 180.747 130.318C180.01 134.303 178.949 138.295 177.019 142.141C176.502 143.354 174.028 143.384 172.346 143.556C170.41 143.586 167.727 143.563 166.727 142.376C165.649 140.582 165.039 138.703 164.076 136.889C163.164 138.888 162.526 140.927 161.558 142.916C158.501 143.825 154.785 143.798 151.86 142.717C151.326 141.902 150.765 141.09 150.435 140.234C148.797 136.378 147.565 132.456 146.741 128.508Z" fill="#EB7859"/>
<path d="M58.9317 130.553C62.5186 129.876 66.8435 130.435 69.241 132.675C72.165 135.494 71.9958 140.005 68.5875 142.566C64.5165 145.229 57.2252 144.925 54.0286 141.534C52.0212 139.255 51.9131 136.195 53.4738 133.763C54.5175 132.148 56.6188 130.996 58.9317 130.553ZM60.3749 134.091C58.1748 135.267 58.2218 137.72 59.115 139.426C59.8813 141.024 63.266 141.269 64.3519 139.761C65.358 138.327 65.4144 136.485 64.4695 135.026C63.7972 133.875 61.7993 133.564 60.3749 134.091Z" fill="#EB7859"/>
<path d="M77.1527 131.478C80.434 130.037 84.7213 130.068 88.1343 131.262C89.333 131.733 90.8561 132.371 90.8844 133.512C90.9502 136.883 90.8937 140.257 90.9032 143.627C90.9784 145.564 89.2108 147.367 86.8556 148.125C83.9692 149.039 80.6597 149.084 77.6557 148.48C76.6591 148.261 75.5779 147.947 75.1031 147.207C74.5343 146.226 74.8728 145.117 75.6531 144.262C78.1917 145.162 81.2661 145.773 83.9551 144.855C85.0598 144.531 85.2667 143.575 85.4265 142.811C83.0901 143.299 80.5563 143.543 78.2528 142.818C74.8869 141.973 73.3449 139.13 73.5565 136.666C73.4578 134.622 74.7599 132.549 77.1527 131.478ZM80.2601 134.848C79.0848 136.115 79.475 137.842 80.3447 139.151C81.8584 139.799 83.6495 139.887 85.215 139.276C85.182 137.633 85.1632 135.986 85.2197 134.342C83.6213 133.791 81.4494 133.728 80.2601 134.848Z" fill="#EB7859"/>
<path d="M98.0722 131.335C101.363 130.051 105.476 130.093 108.809 131.279C109.994 131.733 111.367 132.347 111.479 133.446C111.602 136.726 111.484 140.009 111.536 143.289C111.644 145.1 110.384 146.984 108.179 147.835C104.978 149.126 101.006 149.168 97.5974 148.32C96.2247 148.01 95.4866 147.081 95.2281 146.087C95.6041 145.532 95.5289 144.684 96.3892 144.391C98.9795 145.075 101.913 145.808 104.574 144.852C105.744 144.534 105.819 143.523 106.036 142.751C103.201 143.533 99.8162 143.519 97.2777 142.193C94.9413 140.965 94.0058 138.728 94.1797 136.68C94.0857 134.552 95.4913 132.357 98.0722 131.335ZM100.564 135.25C99.8773 136.408 99.9103 137.867 100.879 138.927C102.115 139.953 104.099 139.831 105.664 139.349C105.683 137.657 105.796 135.962 105.627 134.276C103.995 133.669 101.353 133.844 100.564 135.25Z" fill="#EB7859"/>
<path d="M115.518 130.77C117.323 130.32 119.325 130.201 121.051 130.892C121.328 131.52 121.587 132.165 121.544 132.839C121.511 136.481 121.549 140.124 121.53 143.767C119.669 144.018 117.628 144.203 115.959 143.386C115.724 142.664 115.475 141.935 115.518 141.188C115.532 137.713 115.536 134.241 115.518 130.77Z" fill="#EB7859"/>
<path d="M127.435 132.134C131.557 129.294 139.667 129.918 141.857 134.035C142.473 135.302 142.99 137.472 140.63 137.881C137.373 138.418 134.021 138.578 130.744 139.056C131.299 139.684 131.952 140.326 133.015 140.487C135.553 141.157 138.223 140.483 140.668 139.922C141.133 140.633 141.965 141.412 141.509 142.242C141.02 143.582 138.957 143.966 137.344 144.171C133.381 144.719 128.671 143.966 126.311 141.345C124.04 138.547 124.205 134.496 127.435 132.134ZM130.274 136.216C132.46 135.993 134.641 135.759 136.813 135.473C136.225 134.664 135.417 133.704 133.969 133.861C132.018 133.673 130.495 134.841 130.274 136.216Z" fill="#EB7859"/>
<path d="M184.119 132.068C184.82 130.822 186.846 130.599 188.43 130.41C191.608 130.173 195.275 130.166 197.794 131.848C199.27 132.755 199.684 134.255 199.581 135.616C199.482 137.744 199.736 139.887 199.468 142.005C198.57 143.296 196.534 143.833 194.72 144.088C191.594 144.534 188.12 144.479 185.29 143.285C182.154 141.949 182.074 137.978 185.299 136.687C187.946 135.731 190.983 135.906 193.822 135.529C193.672 135.152 193.531 134.775 193.399 134.398C190.832 133.418 187.838 133.906 185.243 134.555C183.95 134.241 183.908 132.902 184.119 132.068ZM188.853 139.025C188.825 139.343 188.768 139.978 188.74 140.299C190.221 141.118 192.12 140.857 193.808 140.623C193.789 139.89 193.775 139.158 193.77 138.425C192.101 138.439 190.419 138.571 188.853 139.025Z" fill="#EB7859"/>
<path d="M233.433 133.331C234.227 131.338 237.208 130.49 239.76 130.344C242.148 130.229 244.875 130.271 246.788 131.488C247.921 132.361 247.423 133.638 246.793 134.597C244.273 134.192 241.434 133.275 238.999 134.367C239.017 134.545 239.06 134.901 239.079 135.082C241.518 135.899 244.428 135.864 246.581 137.158C248.763 138.414 248.88 141.01 247.202 142.552C245.336 144.074 242.379 144.374 239.751 144.342C237.668 144.22 235.266 144.046 233.813 142.79C232.85 141.851 233.334 140.483 234.415 139.709C236.864 140.546 239.878 141.317 242.435 140.274C242.308 139.827 242.407 139.213 241.608 139.133C239.285 138.571 236.596 138.536 234.678 137.273C233.094 136.349 233.066 134.667 233.433 133.331Z" fill="#EB7859"/>
<path d="M21.9818 157.315C22.3344 157.287 23.0348 157.235 23.3827 157.207C23.4062 158.365 23.4156 159.524 23.3921 160.682C25.2255 160.762 27.0589 160.752 28.8923 160.717C28.8829 159.527 28.8876 158.337 28.9205 157.151C29.2449 157.196 29.8842 157.284 30.2086 157.326C30.3402 159.977 30.2462 162.636 30.2415 165.291C29.9077 165.288 29.2449 165.284 28.9111 165.284C28.897 164.004 28.8923 162.727 28.9017 161.45C27.0683 161.422 25.2349 161.425 23.4015 161.46C23.3498 162.926 23.5566 164.402 23.2793 165.86C23.2229 165.686 23.1053 165.337 23.0489 165.166L21.9959 165.277C22.0288 162.622 22.0523 159.967 21.9818 157.315Z" fill="#EB7859"/>
<path d="M35.9814 157.28C38.1298 157.228 40.2782 157.245 42.4265 157.273C42.4359 157.444 42.45 157.786 42.4547 157.96C40.7765 157.946 39.0982 157.946 37.4199 157.936C37.3823 158.854 37.3729 159.775 37.3682 160.692C38.7127 160.745 40.0619 160.699 41.4064 160.78C41.5427 160.923 41.8201 161.209 41.9564 161.352C40.4333 161.45 38.9055 161.439 37.3823 161.443C37.387 162.482 37.387 163.522 37.387 164.565C39.0324 164.59 40.6824 164.517 42.3231 164.625C42.3795 164.789 42.4876 165.12 42.5393 165.284C40.3581 165.281 38.1768 165.291 36.0002 165.242C36.0191 162.587 36.0473 159.932 35.9814 157.28Z" fill="#EB7859"/>
<path d="M47.6823 157.308C48.0254 157.287 48.7071 157.238 49.0455 157.214C49.0784 159.66 49.102 162.106 49.0314 164.555C50.6392 164.586 52.2516 164.51 53.8547 164.628C53.9205 164.778 54.0427 165.078 54.1085 165.228C51.9696 165.298 49.8306 165.291 47.6964 165.246C47.7011 162.601 47.7246 159.953 47.6823 157.308Z" fill="#EB7859"/>
<path d="M58.4851 157.353C60.4595 157.245 62.6737 157.018 64.4225 157.873C66.0443 158.665 65.9456 160.612 64.4131 161.422C63.0968 162.133 61.4044 162.102 59.8578 162.203C59.8813 163.233 59.8907 164.262 59.8813 165.291C59.5381 165.288 58.8518 165.277 58.5133 165.274C58.5227 162.632 58.5321 159.995 58.4851 157.353ZM59.8625 157.974C59.886 159.129 59.8907 160.288 59.886 161.446C61.16 161.39 62.6596 161.61 63.6844 160.902C64.5635 160.291 64.1169 159.332 64.0652 158.564C62.8288 157.898 61.3151 157.887 59.8625 157.974Z" fill="#EB7859"/>
<path d="M77.8297 157.252C78.1588 157.256 78.8122 157.266 79.1366 157.27C79.4281 159.234 79.0003 161.226 79.3434 163.187C79.696 165.019 83.753 165.12 84.2748 163.33C84.7308 161.328 84.4299 159.276 84.4816 157.252C84.8107 157.252 85.4735 157.249 85.8026 157.245C85.6522 159.311 86.1505 161.432 85.4923 163.456C84.4205 165.968 78.6571 165.818 78.0084 163.173C77.6605 161.213 77.9519 159.224 77.8297 157.252Z" fill="#EB7859"/>
<path d="M90.9595 158.599C92.525 156.952 95.5383 157.033 97.8277 157.671C97.6255 157.912 97.4187 158.156 97.2118 158.4C95.6981 157.856 93.7002 157.643 92.3651 158.561C92.3792 158.868 92.4027 159.478 92.4168 159.785C93.987 160.661 96.0836 160.892 97.4892 161.931C98.4012 162.835 97.7901 163.948 96.958 164.737C94.8613 165.522 92.4544 165.333 90.339 164.705C90.5364 164.524 90.9266 164.161 91.1241 163.979C92.3322 164.318 93.5639 164.796 94.899 164.538C96.2575 164.468 97.1742 163.111 96.1588 162.353C94.8896 161.425 92.9104 161.338 91.5989 160.448C90.9736 159.949 91.077 159.224 90.9595 158.599Z" fill="#EB7859"/>
<path d="M110.741 157.249C111.089 157.249 111.785 157.249 112.133 157.249C112.128 158.407 112.128 159.569 112.128 160.731C113.971 160.745 115.814 160.745 117.656 160.707C117.624 159.555 117.624 158.404 117.619 157.252C117.967 157.263 118.667 157.28 119.02 157.291C119.02 159.925 118.982 162.563 119.039 165.197C118.691 165.228 117.995 165.284 117.647 165.316C117.619 164.028 117.619 162.744 117.628 161.464C115.795 161.429 113.962 161.432 112.128 161.446C112.138 162.72 112.123 163.997 112.123 165.274C111.78 165.274 111.094 165.274 110.751 165.274C110.774 162.598 110.774 159.921 110.741 157.249Z" fill="#EB7859"/>
<path d="M124.788 157.27C126.955 157.224 129.122 157.228 131.289 157.291C131.205 157.444 131.04 157.748 130.96 157.898C129.367 158.006 127.764 157.926 126.17 157.94C126.175 158.861 126.17 159.782 126.147 160.706C127.745 160.773 129.437 160.549 130.942 161.062C129.503 161.711 127.75 161.355 126.156 161.443C126.161 162.475 126.161 163.512 126.161 164.548C127.792 164.6 129.451 164.468 131.073 164.667C131.158 164.799 131.336 165.071 131.421 165.207C129.212 165.312 126.993 165.284 124.779 165.263C124.811 162.601 124.807 159.935 124.788 157.27Z" fill="#EB7859"/>
<path d="M136.221 157.311C136.573 157.291 137.279 157.242 137.631 157.217C137.636 159.656 137.664 162.095 137.612 164.538C139.436 164.663 141.392 164.304 143.098 164.921C140.95 165.63 138.491 165.173 136.211 165.221C136.296 162.587 136.273 159.949 136.221 157.311Z" fill="#EB7859"/>
<path d="M147.23 157.343C149.163 157.252 151.273 157.025 153.017 157.817C154.437 158.48 154.771 160.089 153.629 161.017C152.411 162.172 150.225 162.078 148.457 162.224C148.462 163.226 148.533 164.231 148.688 165.232C148.326 165.246 147.602 165.277 147.24 165.291C147.249 162.643 147.259 159.995 147.23 157.343ZM148.613 157.961C148.622 159.122 148.627 160.288 148.627 161.453C149.891 161.373 151.471 161.638 152.411 160.829C153.248 160.197 153.079 159.189 152.472 158.498C151.447 157.758 149.905 157.988 148.613 157.961Z" fill="#EB7859"/>
<path d="M169.678 157.294C170.059 157.277 170.811 157.245 171.191 157.231C172.512 159.663 173.838 162.099 175.201 164.517C175.573 165.085 174.407 165.057 173.956 165.138C173.697 164.37 173.359 163.623 173.039 162.877C171.276 162.817 169.518 162.821 167.76 162.859C167.402 163.648 167.012 164.429 166.617 165.211C166.241 165.103 165.87 164.995 165.499 164.886C166.791 162.325 168.333 159.838 169.678 157.294ZM168.164 162.085C169.603 162.147 171.05 162.154 172.489 162.081C171.718 160.822 171.238 159.468 170.265 158.278C169.626 159.565 169.015 160.863 168.164 162.085Z" fill="#EB7859"/>
<path d="M179.935 157.273C180.589 157.273 181.247 157.277 181.91 157.287C183.456 159.545 185.064 161.781 186.747 163.983C186.846 161.746 186.766 159.506 186.794 157.273C187.123 157.273 187.781 157.28 188.11 157.28C188.11 159.935 188.124 162.591 188.106 165.246C187.452 165.242 186.803 165.235 186.155 165.228C184.679 162.964 182.958 160.794 181.327 158.596C181.275 160.829 181.322 163.065 181.28 165.302C180.946 165.274 180.274 165.221 179.935 165.194C179.992 162.552 179.992 159.911 179.935 157.273Z" fill="#EB7859"/>
<path d="M193.907 157.249C194.25 157.249 194.936 157.245 195.279 157.245C195.256 159.929 195.279 162.612 195.265 165.298C194.922 165.288 194.241 165.274 193.897 165.267C193.902 162.594 193.893 159.922 193.907 157.249Z" fill="#EB7859"/>
<path d="M201.094 157.353C201.762 157.297 202.43 157.249 203.107 157.207C204.051 158.885 205.072 160.539 206.031 162.214C207.521 160.755 208.113 158.913 209.185 157.28C209.857 157.259 210.534 157.242 211.211 157.231C211.169 159.911 211.164 162.591 211.22 165.27C210.882 165.27 210.214 165.27 209.881 165.27C209.862 163.041 209.97 160.808 209.791 158.582C208.776 160.183 207.784 161.792 206.881 163.431C206.524 163.431 205.805 163.431 205.443 163.431C204.484 161.805 203.492 160.19 202.509 158.575C202.373 160.815 202.491 163.058 202.425 165.298C202.096 165.281 201.433 165.242 201.104 165.225C201.123 162.601 201.156 159.977 201.094 157.353Z" fill="#EB7859"/>
<path d="M215.715 164.953C216.989 162.339 218.587 159.82 219.95 157.235C220.326 157.252 221.078 157.291 221.455 157.308C222.808 159.834 224.214 162.343 225.601 164.862C225.267 164.946 224.599 165.113 224.266 165.197C223.955 164.443 223.612 163.697 223.34 162.94C221.567 162.779 219.781 162.835 218.004 162.842C217.633 163.617 217.257 164.391 216.88 165.166C216.49 165.092 216.1 165.023 215.715 164.953ZM218.549 162.081C219.922 162.13 221.304 162.144 222.681 162.155C222.023 160.874 221.36 159.594 220.754 158.299C219.678 159.437 219.25 160.811 218.549 162.081Z" fill="#EB7859"/>
<path d="M230.156 157.238C230.504 157.245 231.2 157.263 231.548 157.273C231.529 159.709 231.548 162.148 231.538 164.586C233.146 164.597 234.777 164.457 236.376 164.663C236.46 164.799 236.639 165.071 236.723 165.208C234.537 165.312 232.351 165.277 230.166 165.274C230.175 162.594 230.184 159.914 230.156 157.238Z" fill="#EB7859"/>
<path d="M242.454 157.475C244.189 156.949 246.121 157.294 247.747 157.877C245.956 158.714 243.54 157.196 241.937 158.575C241.927 158.857 241.909 159.422 241.899 159.705C243.3 160.56 245.148 160.818 246.586 161.61C248.105 162.444 247.658 164.401 245.919 164.879C244.104 165.584 242.012 165.218 240.174 164.785C240.324 164.485 240.489 164.189 240.663 163.896C242.228 164.646 245.19 165.155 246.069 163.55C246.478 161.073 241.312 161.781 240.653 159.691C240.202 158.728 241.25 157.755 242.454 157.475Z" fill="#EB7859"/>
</svg>
