<svg width="283" height="205" viewBox="0 0 283 205" fill="none" xmlns="http://www.w3.org/2000/svg">
<path d="M131.407 23.819C143.992 22.9222 156.962 24.5412 168.22 28.8712C174.111 31.0066 179.446 33.9026 184.256 37.1963C195.11 44.9109 202.387 55.3713 204.362 66.4424C206.891 79.8861 201.518 93.9927 189.906 104.474C177.876 115.468 159.204 122.346 140.094 122.611C127.035 122.928 113.877 120.283 102.811 115.119C89.2108 108.877 78.878 98.8287 74.3274 87.4505C68.0986 72.6147 72.1462 55.6644 84.8906 43.3338C95.7828 32.3604 113.167 25.1727 131.407 23.819ZM119.156 46.1669C115.174 46.9171 111.987 49.4712 111.174 52.4509C110.248 54.8898 111.602 57.4125 113.374 59.4536C116.232 62.4473 120.026 65.0746 124.638 66.4947C126.758 66.9274 129.55 67.1402 131.073 65.6887C133.635 63.4033 133.786 60.2282 133.739 57.395C133.706 54.042 132.737 50.3539 129.301 47.9778C126.64 46.0797 122.668 45.6157 119.156 46.1669ZM150.512 46.296C148.495 46.8473 146.615 47.7894 145.28 49.049C144.133 50.4516 143.056 51.9485 142.732 53.5953C142.055 56.5751 141.923 59.6734 142.83 62.6322C143.427 64.2233 144.49 65.9434 146.629 66.6622C150.719 67.367 154.432 65.5003 157.441 63.6825C161.127 61.2156 164.756 58.1347 165.085 54.2827C164.991 50.7168 161.761 47.102 156.976 46.2018C154.86 45.8669 152.599 45.8285 150.512 46.296ZM97.9876 65.3119C95.2939 66.254 93.0327 68.0718 92.5673 70.3084C91.8575 72.7717 93.0186 75.5211 95.6794 77.1122C98.782 78.9614 102.82 79.7116 106.717 79.9733C109.373 80.0675 112.504 80.1129 114.488 78.5742C115.823 77.6356 115.706 76.1317 115.362 74.9105C114.394 71.6587 111.508 68.9511 108.377 66.6657C105.645 64.7432 101.443 64.321 97.9876 65.3119ZM170.016 65.434C166.034 67.1437 163.275 70.1199 161.333 73.1555C160.346 74.9734 159.524 77.5728 162.02 78.9475C164.779 80.385 168.423 80.0989 171.586 79.7709C175.643 79.1045 180.34 78.1031 182.417 75.1618C185.144 71.7319 182.939 66.5854 177.749 65.2979C175.281 64.6106 172.414 64.5478 170.016 65.434ZM136.075 70.9085C131.224 72.1297 126.861 74.3069 123.157 76.9168C119.824 79.1394 116.575 81.5574 114.54 84.565C112.551 87.639 111.86 91.3968 113.905 94.5614C116.331 98.8566 123.18 101.446 129.282 100.364C132.272 99.8824 134.481 98.2146 136.837 96.8887C137.382 96.5328 138.247 96.3793 138.872 96.7282C141.035 97.7994 142.774 99.366 145.284 100.029C151.847 101.944 159.928 98.9752 162.283 94.1113C164.248 90.8699 163.167 87.1051 161.07 84.0591C158.019 80.0884 153.403 76.9098 148.467 74.2406C144.772 72.503 140.738 70.1269 136.075 70.9085Z" fill="#EB7859"/>
<path d="M119.156 46.1669C122.668 45.6157 126.64 46.0797 129.301 47.9778C132.737 50.3539 133.706 54.042 133.739 57.395C133.786 60.2282 133.635 63.4033 131.073 65.6887C129.55 67.1402 126.758 66.9274 124.637 66.4947C120.026 65.0746 116.232 62.4473 113.374 59.4536C111.602 57.4125 110.248 54.8898 111.174 52.4509C111.987 49.4712 115.174 46.9171 119.156 46.1669Z" fill="white"/>
<path d="M150.512 46.2961C152.599 45.8286 154.86 45.8669 156.976 46.2019C161.761 47.1021 164.991 50.7168 165.085 54.2828C164.756 58.1348 161.127 61.2157 157.441 63.6825C154.432 65.5004 150.719 67.3671 146.629 66.6623C144.49 65.9435 143.427 64.2233 142.83 62.6323C141.923 59.6735 142.055 56.5751 142.732 53.5954C143.056 51.9485 144.133 50.4517 145.28 49.049C146.615 47.7895 148.495 46.8474 150.512 46.2961Z" fill="white"/>
<path d="M97.9876 65.3119C101.443 64.321 105.645 64.7432 108.377 66.6657C111.508 68.9511 114.394 71.6587 115.362 74.9106C115.706 76.1318 115.823 77.6356 114.488 78.5742C112.504 80.1129 109.373 80.0676 106.717 79.9733C102.82 79.7117 98.782 78.9615 95.6794 77.1122C93.0186 75.5212 91.8575 72.7717 92.5673 70.3084C93.0327 68.0719 95.2939 66.254 97.9876 65.3119Z" fill="white"/>
<path d="M170.016 65.434C172.414 64.5478 175.281 64.6106 177.749 65.298C182.939 66.5855 185.144 71.732 182.417 75.1618C180.34 78.1031 175.643 79.1045 171.586 79.7709C168.423 80.0989 164.779 80.385 162.02 78.9475C159.524 77.5728 160.346 74.9734 161.333 73.1555C163.275 70.12 166.034 67.1437 170.016 65.434Z" fill="white"/>
<path d="M136.075 70.9085C140.738 70.127 144.772 72.5031 148.467 74.2407C153.403 76.9099 158.019 80.0885 161.07 84.0591C163.167 87.1052 164.248 90.87 162.283 94.1114C159.928 98.9753 151.847 101.945 145.284 100.029C142.774 99.366 141.035 97.7994 138.872 96.7282C138.247 96.3793 137.382 96.5328 136.837 96.8887C134.481 98.2146 132.272 99.8824 129.282 100.364C123.18 101.446 116.331 98.8566 113.905 94.5615C111.86 91.3968 112.551 87.639 114.54 84.5651C116.575 81.5574 119.824 79.1394 123.157 76.9169C126.861 74.307 131.224 72.1297 136.075 70.9085Z" fill="white"/>
<path d="M117.61 140.555C119.871 139.969 122.405 141.634 121.831 143.375C121.441 145.056 118.536 145.887 116.669 144.941C114.427 143.933 114.963 140.967 117.61 140.555Z" fill="#EB7859"/>
<path d="M203.407 142.652C205.072 142.241 207.06 141.86 208.654 142.631C209.533 143.061 209.486 143.933 209.5 144.627C209.462 149.68 209.533 154.732 209.462 159.788C207.582 160.018 205.523 160.206 203.84 159.379C203.652 158.654 203.422 157.924 203.431 157.185C203.426 152.338 203.478 147.495 203.407 142.652Z" fill="#EB7859"/>
<path d="M213.712 142.464C215.564 142.153 217.6 142.003 219.311 142.743C220.307 145.534 219.518 148.476 219.828 151.326C221.972 149.742 223.88 147.98 226.099 146.459C228.083 146.166 230.786 147.52 230.043 149.195C229.136 150.897 226.616 151.64 225.182 153.05C225.164 153.5 225.794 153.741 226.127 154.058C227.697 155.168 229.211 156.323 230.758 157.453C230.48 158.472 229.954 159.679 228.37 159.896C226.123 160.395 224.261 159.041 223.067 157.806C221.995 156.839 221.013 155.813 219.819 154.924C219.767 156.532 219.8 158.141 219.757 159.746C217.708 159.993 214.784 160.444 213.703 158.696C213.731 153.284 213.712 147.872 213.712 142.464Z" fill="#EB7859"/>
<path d="M30.0723 143.954C33.6685 142.663 37.9699 142.666 41.8201 143.287C45.5479 143.821 48.7023 146.054 49.5391 148.807C50.484 151.804 50.0515 155.304 47.2215 157.694C44.4479 159.917 40.076 160.489 36.1695 160.332C34.2609 160.175 32.2112 160.084 30.5471 159.306C29.1979 158.448 29.5881 156.972 29.5552 155.803C29.5363 153.245 29.5222 150.688 29.5599 148.13C29.7009 146.756 29.0757 145.186 30.0723 143.954ZM35.8122 146.735C35.8075 150.039 35.7887 153.34 35.831 156.644C38.4823 157.045 42.0222 156.595 42.9859 154.428C43.9167 152.234 44.0248 149.345 41.5944 147.638C40.0243 146.55 37.7866 146.714 35.8122 146.735Z" fill="#EB7859"/>
<path d="M146.741 144.508C148.473 143.871 150.666 143.324 152.64 143.918C154.73 144.359 154.471 145.923 154.889 146.984C155.796 149.889 156.022 152.886 157.38 155.727C158.248 152.962 159.474 150.24 160.475 147.492C162.779 147.18 165.445 146.938 167.529 147.78C169.261 150.32 169.855 153.091 171.362 155.684C172.538 151.881 173.055 148.012 173.72 144.17C175.634 143.666 177.959 143.394 179.818 144.143C181.088 144.571 180.785 145.585 180.747 146.318C180.01 150.303 178.949 154.295 177.019 158.141C176.502 159.354 174.028 159.384 172.346 159.556C170.41 159.586 167.727 159.563 166.727 158.376C165.649 156.582 165.039 154.702 164.076 152.889C163.164 154.888 162.526 156.927 161.558 158.916C158.501 159.825 154.785 159.798 151.86 158.717C151.326 157.902 150.765 157.09 150.435 156.234C148.797 152.378 147.565 148.456 146.741 144.508Z" fill="#EB7859"/>
<path d="M58.9317 146.553C62.5186 145.876 66.8435 146.435 69.241 148.675C72.165 151.494 71.9958 156.005 68.5875 158.566C64.5165 161.229 57.2252 160.925 54.0286 157.534C52.0212 155.255 51.9131 152.195 53.4738 149.763C54.5175 148.148 56.6188 146.996 58.9317 146.553ZM60.3749 150.091C58.1748 151.267 58.2218 153.72 59.115 155.426C59.8813 157.024 63.266 157.268 64.3519 155.761C65.358 154.327 65.4144 152.485 64.4695 151.026C63.7972 149.875 61.7993 149.564 60.3749 150.091Z" fill="#EB7859"/>
<path d="M77.1527 147.478C80.434 146.037 84.7213 146.068 88.1343 147.262C89.333 147.733 90.8561 148.371 90.8844 149.512C90.9502 152.883 90.8937 156.257 90.9032 159.627C90.9784 161.564 89.2108 163.367 86.8556 164.125C83.9692 165.039 80.6597 165.084 77.6557 164.48C76.6591 164.261 75.5779 163.947 75.1031 163.207C74.5343 162.226 74.8728 161.117 75.6531 160.262C78.1917 161.162 81.2661 161.773 83.9551 160.855C85.0598 160.531 85.2667 159.575 85.4265 158.811C83.0901 159.299 80.5563 159.543 78.2528 158.818C74.8869 157.973 73.3449 155.13 73.5565 152.666C73.4578 150.622 74.7599 148.549 77.1527 147.478ZM80.2601 150.848C79.0848 152.115 79.475 153.842 80.3447 155.151C81.8584 155.799 83.6495 155.887 85.215 155.276C85.182 153.633 85.1632 151.986 85.2197 150.342C83.6213 149.791 81.4494 149.728 80.2601 150.848Z" fill="#EB7859"/>
<path d="M98.0722 147.335C101.363 146.051 105.476 146.093 108.809 147.279C109.994 147.733 111.367 148.347 111.479 149.446C111.602 152.726 111.484 156.009 111.536 159.289C111.644 161.1 110.384 162.984 108.179 163.835C104.978 165.126 101.006 165.168 97.5974 164.32C96.2247 164.009 95.4866 163.081 95.2281 162.087C95.6041 161.532 95.5289 160.684 96.3892 160.391C98.9795 161.075 101.913 161.808 104.574 160.852C105.744 160.534 105.819 159.522 106.036 158.751C103.201 159.533 99.8162 159.519 97.2777 158.193C94.9413 156.965 94.0058 154.728 94.1797 152.68C94.0857 150.552 95.4913 148.357 98.0722 147.335ZM100.564 151.25C99.8773 152.408 99.9103 153.867 100.879 154.927C102.115 155.953 104.099 155.831 105.664 155.349C105.683 153.657 105.796 151.961 105.627 150.276C103.995 149.669 101.353 149.844 100.564 151.25Z" fill="#EB7859"/>
<path d="M115.518 146.77C117.323 146.32 119.325 146.201 121.051 146.892C121.328 147.52 121.587 148.165 121.544 148.839C121.511 152.481 121.549 156.124 121.53 159.767C119.669 160.018 117.628 160.203 115.96 159.386C115.724 158.664 115.475 157.935 115.518 157.188C115.532 153.713 115.536 150.241 115.518 146.77Z" fill="#EB7859"/>
<path d="M127.435 148.134C131.557 145.294 139.667 145.918 141.857 150.035C142.473 151.302 142.99 153.472 140.63 153.88C137.373 154.418 134.021 154.578 130.744 155.056C131.299 155.684 131.952 156.326 133.015 156.487C135.553 157.157 138.223 156.483 140.668 155.922C141.133 156.633 141.965 157.411 141.509 158.242C141.02 159.582 138.957 159.966 137.344 160.171C133.381 160.719 128.671 159.966 126.311 157.345C124.04 154.547 124.205 150.496 127.435 148.134ZM130.274 152.216C132.46 151.993 134.641 151.759 136.813 151.473C136.225 150.663 135.417 149.704 133.969 149.861C132.018 149.673 130.495 150.841 130.274 152.216Z" fill="#EB7859"/>
<path d="M184.119 148.068C184.82 146.822 186.846 146.599 188.43 146.41C191.608 146.173 195.275 146.166 197.794 147.848C199.271 148.755 199.684 150.255 199.581 151.616C199.482 153.744 199.736 155.887 199.468 158.005C198.57 159.296 196.535 159.833 194.72 160.088C191.594 160.534 188.12 160.478 185.29 159.285C182.154 157.949 182.074 153.978 185.299 152.687C187.946 151.731 190.983 151.906 193.822 151.529C193.672 151.152 193.531 150.775 193.399 150.398C190.832 149.418 187.838 149.906 185.243 150.555C183.95 150.241 183.908 148.901 184.119 148.068ZM188.853 155.025C188.825 155.342 188.769 155.977 188.74 156.298C190.221 157.118 192.12 156.857 193.808 156.623C193.789 155.89 193.775 155.158 193.77 154.425C192.102 154.439 190.419 154.571 188.853 155.025Z" fill="#EB7859"/>
<path d="M233.433 149.331C234.227 147.338 237.208 146.49 239.76 146.344C242.148 146.229 244.875 146.271 246.788 147.488C247.921 148.361 247.423 149.638 246.793 150.597C244.273 150.192 241.434 149.275 238.999 150.367C239.017 150.545 239.06 150.901 239.079 151.082C241.518 151.899 244.428 151.864 246.581 153.158C248.763 154.414 248.88 157.01 247.202 158.552C245.336 160.074 242.379 160.374 239.751 160.342C237.668 160.22 235.266 160.046 233.813 158.79C232.85 157.851 233.334 156.483 234.415 155.709C236.864 156.546 239.878 157.317 242.435 156.274C242.308 155.827 242.407 155.213 241.608 155.133C239.285 154.571 236.596 154.536 234.678 153.273C233.094 152.349 233.066 150.667 233.433 149.331Z" fill="#EB7859"/>
<path d="M21.9819 173.315C22.3344 173.287 23.0349 173.235 23.3828 173.207C23.4063 174.365 23.4157 175.524 23.3922 176.682C25.2256 176.762 27.0589 176.752 28.8923 176.717C28.8829 175.527 28.8876 174.337 28.9205 173.151C29.2449 173.196 29.8842 173.284 30.2086 173.326C30.3402 175.977 30.2462 178.636 30.2415 181.291C29.9078 181.288 29.2449 181.284 28.9111 181.284C28.897 180.004 28.8923 178.727 28.9017 177.45C27.0684 177.422 25.235 177.425 23.4016 177.46C23.3499 178.926 23.5567 180.402 23.2793 181.86C23.2229 181.686 23.1054 181.337 23.049 181.166L21.996 181.277C22.0289 178.622 22.0524 175.967 21.9819 173.315Z" fill="#EB7859"/>
<path d="M35.9814 173.28C38.1298 173.228 40.2782 173.245 42.4265 173.273C42.4359 173.444 42.45 173.786 42.4547 173.961C40.7765 173.947 39.0982 173.947 37.4199 173.936C37.3823 174.854 37.3729 175.775 37.3682 176.693C38.7127 176.745 40.0619 176.7 41.4064 176.78C41.5427 176.923 41.8201 177.209 41.9564 177.352C40.4333 177.45 38.9055 177.439 37.3823 177.443C37.387 178.482 37.387 179.522 37.387 180.566C39.0324 180.59 40.6824 180.517 42.3231 180.625C42.3795 180.789 42.4876 181.12 42.5393 181.284C40.3581 181.281 38.1768 181.291 36.0002 181.242C36.0191 178.587 36.0473 175.932 35.9814 173.28Z" fill="#EB7859"/>
<path d="M47.6822 173.308C48.0254 173.287 48.707 173.238 49.0455 173.214C49.0784 175.66 49.1019 178.106 49.0314 180.555C50.6391 180.586 52.2516 180.51 53.8546 180.628C53.9204 180.778 54.0426 181.078 54.1085 181.228C51.9695 181.298 49.8305 181.291 47.6963 181.246C47.701 178.601 47.7245 175.953 47.6822 173.308Z" fill="#EB7859"/>
<path d="M58.4851 173.353C60.4595 173.245 62.6737 173.018 64.4225 173.873C66.0443 174.665 65.9456 176.612 64.4131 177.422C63.0968 178.134 61.4044 178.102 59.8578 178.203C59.8813 179.233 59.8907 180.262 59.8813 181.291C59.5381 181.288 58.8518 181.277 58.5133 181.274C58.5227 178.632 58.5321 175.995 58.4851 173.353ZM59.8625 173.974C59.886 175.129 59.8907 176.288 59.886 177.446C61.16 177.39 62.6596 177.61 63.6844 176.902C64.5635 176.291 64.1169 175.332 64.0652 174.564C62.8288 173.898 61.3151 173.887 59.8625 173.974Z" fill="#EB7859"/>
<path d="M77.8297 173.252C78.1588 173.256 78.8122 173.266 79.1366 173.27C79.4281 175.234 79.0003 177.226 79.3434 179.187C79.696 181.019 83.753 181.12 84.2748 179.33C84.7308 177.328 84.4299 175.276 84.4816 173.252C84.8107 173.252 85.4735 173.249 85.8026 173.245C85.6522 175.311 86.1505 177.432 85.4923 179.456C84.4205 181.968 78.6571 181.818 78.0084 179.173C77.6605 177.212 77.9519 175.224 77.8297 173.252Z" fill="#EB7859"/>
<path d="M90.9596 174.599C92.525 172.952 95.5384 173.032 97.8277 173.671C97.6256 173.912 97.4187 174.156 97.2119 174.4C95.6982 173.856 93.7003 173.643 92.3652 174.561C92.3793 174.868 92.4028 175.478 92.4169 175.785C93.987 176.661 96.0837 176.891 97.4893 177.931C98.4013 178.835 97.7901 179.948 96.9581 180.736C94.8614 181.522 92.4545 181.333 90.3391 180.705C90.5365 180.524 90.9267 180.161 91.1241 179.979C92.3323 180.318 93.5639 180.796 94.899 180.538C96.2576 180.468 97.1743 179.11 96.1589 178.353C94.8896 177.425 92.9105 177.338 91.5989 176.448C90.9737 175.949 91.0771 175.224 90.9596 174.599Z" fill="#EB7859"/>
<path d="M110.741 173.249C111.089 173.249 111.785 173.249 112.133 173.249C112.128 174.407 112.128 175.569 112.128 176.731C113.971 176.745 115.814 176.745 117.657 176.706C117.624 175.555 117.624 174.404 117.619 173.252C117.967 173.263 118.667 173.28 119.02 173.291C119.02 175.925 118.982 178.563 119.039 181.197C118.691 181.228 117.995 181.284 117.647 181.316C117.619 180.028 117.619 178.744 117.628 177.464C115.795 177.429 113.962 177.432 112.128 177.446C112.138 178.72 112.123 179.997 112.123 181.274C111.78 181.274 111.094 181.274 110.751 181.274C110.774 178.598 110.774 175.921 110.741 173.249Z" fill="#EB7859"/>
<path d="M124.788 173.27C126.955 173.224 129.122 173.228 131.289 173.291C131.205 173.444 131.04 173.748 130.96 173.898C129.367 174.006 127.764 173.926 126.17 173.94C126.175 174.861 126.17 175.782 126.147 176.706C127.745 176.773 129.437 176.549 130.942 177.062C129.503 177.711 127.75 177.355 126.156 177.443C126.161 178.475 126.161 179.512 126.161 180.548C127.792 180.6 129.451 180.468 131.073 180.667C131.158 180.799 131.336 181.071 131.421 181.207C129.212 181.312 126.993 181.284 124.779 181.263C124.811 178.601 124.807 175.935 124.788 173.27Z" fill="#EB7859"/>
<path d="M136.221 173.312C136.573 173.291 137.278 173.242 137.631 173.217C137.636 175.656 137.664 178.095 137.612 180.538C139.436 180.663 141.392 180.304 143.098 180.921C140.95 181.63 138.491 181.173 136.211 181.221C136.296 178.587 136.272 175.949 136.221 173.312Z" fill="#EB7859"/>
<path d="M147.231 173.343C149.163 173.252 151.273 173.025 153.017 173.817C154.437 174.48 154.771 176.089 153.629 177.017C152.411 178.172 150.225 178.078 148.457 178.224C148.462 179.226 148.533 180.231 148.688 181.232C148.326 181.246 147.602 181.277 147.24 181.291C147.249 178.643 147.259 175.995 147.231 173.343ZM148.613 173.961C148.622 175.122 148.627 176.288 148.627 177.453C149.891 177.373 151.471 177.638 152.411 176.829C153.248 176.197 153.079 175.189 152.472 174.498C151.447 173.758 149.905 173.988 148.613 173.961Z" fill="#EB7859"/>
<path d="M169.678 173.294C170.059 173.277 170.811 173.245 171.192 173.231C172.512 175.663 173.838 178.099 175.201 180.517C175.573 181.085 174.407 181.057 173.956 181.138C173.697 180.37 173.359 179.623 173.039 178.877C171.276 178.817 169.518 178.821 167.76 178.859C167.402 179.648 167.012 180.429 166.617 181.211C166.241 181.103 165.87 180.995 165.499 180.887C166.791 178.325 168.333 175.838 169.678 173.294ZM168.164 178.085C169.603 178.148 171.05 178.154 172.489 178.081C171.718 176.822 171.239 175.468 170.265 174.278C169.626 175.566 169.015 176.864 168.164 178.085Z" fill="#EB7859"/>
<path d="M179.935 173.273C180.589 173.273 181.247 173.277 181.91 173.287C183.456 175.545 185.064 177.781 186.747 179.983C186.846 177.746 186.766 175.506 186.794 173.273C187.123 173.273 187.781 173.28 188.11 173.28C188.11 175.935 188.125 178.591 188.106 181.246C187.452 181.242 186.804 181.235 186.155 181.228C184.679 178.964 182.958 176.794 181.327 174.596C181.275 176.829 181.322 179.065 181.28 181.302C180.946 181.274 180.274 181.221 179.935 181.194C179.992 178.552 179.992 175.911 179.935 173.273Z" fill="#EB7859"/>
<path d="M193.907 173.249C194.25 173.249 194.936 173.245 195.279 173.245C195.256 175.928 195.279 178.612 195.265 181.298C194.922 181.288 194.24 181.274 193.897 181.267C193.902 178.594 193.893 175.921 193.907 173.249Z" fill="#EB7859"/>
<path d="M201.095 173.353C201.762 173.298 202.43 173.249 203.107 173.207C204.051 174.885 205.072 176.539 206.031 178.214C207.521 176.755 208.113 174.913 209.185 173.28C209.857 173.259 210.534 173.242 211.211 173.231C211.169 175.911 211.164 178.591 211.22 181.27C210.882 181.27 210.214 181.27 209.881 181.27C209.862 179.041 209.97 176.808 209.791 174.582C208.776 176.183 207.784 177.792 206.881 179.431C206.524 179.431 205.805 179.431 205.443 179.431C204.484 177.806 203.492 176.19 202.51 174.575C202.373 176.815 202.491 179.058 202.425 181.298C202.096 181.281 201.433 181.242 201.104 181.225C201.123 178.601 201.156 175.977 201.095 173.353Z" fill="#EB7859"/>
<path d="M215.715 180.953C216.989 178.339 218.587 175.82 219.95 173.235C220.326 173.252 221.078 173.291 221.455 173.308C222.808 175.834 224.214 178.343 225.601 180.862C225.267 180.946 224.599 181.113 224.266 181.197C223.955 180.443 223.612 179.697 223.34 178.94C221.567 178.779 219.781 178.835 218.004 178.842C217.633 179.616 217.257 180.391 216.88 181.166C216.49 181.092 216.1 181.023 215.715 180.953ZM218.549 178.081C219.922 178.13 221.304 178.144 222.681 178.155C222.023 176.874 221.36 175.593 220.754 174.299C219.678 175.436 219.25 176.811 218.549 178.081Z" fill="#EB7859"/>
<path d="M230.156 173.238C230.504 173.245 231.2 173.263 231.548 173.273C231.529 175.709 231.548 178.148 231.538 180.586C233.146 180.597 234.777 180.457 236.376 180.663C236.46 180.799 236.639 181.071 236.723 181.208C234.537 181.312 232.351 181.277 230.165 181.274C230.175 178.594 230.184 175.914 230.156 173.238Z" fill="#EB7859"/>
<path d="M242.454 173.476C244.189 172.949 246.121 173.294 247.747 173.877C245.956 174.714 243.54 173.196 241.937 174.575C241.927 174.857 241.909 175.422 241.899 175.705C243.3 176.56 245.148 176.818 246.586 177.61C248.104 178.444 247.658 180.401 245.919 180.88C244.104 181.584 242.012 181.218 240.174 180.785C240.324 180.485 240.489 180.189 240.663 179.896C242.228 180.646 245.19 181.155 246.069 179.55C246.478 177.073 241.312 177.781 240.653 175.691C240.202 174.728 241.25 173.755 242.454 173.476Z" fill="#EB7859"/>
</svg>
